<svg xmlns="http://www.w3.org/2000/svg" viewBox="0 0 512 512" role="img" aria-labelledby="title desc">
  <title id="title">MacThing app icon</title>
  <desc id="desc">A polished teal macOS-style search icon with a magnifying glass.</desc>
  <defs>
    <linearGradient id="bg" x1="80" y1="60" x2="430" y2="460" gradientUnits="userSpaceOnUse">
      <stop offset="0" stop-color="#1ef0c1"/>
      <stop offset="0.45" stop-color="#0c8b8d"/>
      <stop offset="1" stop-color="#072d37"/>
    </linearGradient>
    <linearGradient id="glass" x1="168" y1="124" x2="342" y2="318" gradientUnits="userSpaceOnUse">
      <stop offset="0" stop-color="#ffffff"/>
      <stop offset="1" stop-color="#d7fff5"/>
    </linearGradient>
    <filter id="shadow" x="-20%" y="-20%" width="140%" height="140%">
      <feDropShadow dx="0" dy="18" stdDeviation="24" flood-color="#001013" flood-opacity="0.34"/>
      <feDropShadow dx="0" dy="2" stdDeviation="2" flood-color="#ffffff" flood-opacity="0.22"/>
    </filter>
  </defs>
  <rect x="42" y="42" width="428" height="428" rx="104" fill="url(#bg)" filter="url(#shadow)"/>
  <path d="M108 135c34-42 85-67 142-67 90 0 165 64 181 149-30-38-76-62-128-62-67 0-125 40-151 98-22-31-38-70-44-118Z" fill="#64ffe0" opacity="0.16"/>
  <circle cx="231" cy="222" r="92" fill="none" stroke="url(#glass)" stroke-width="42"/>
  <path d="M300 293 396 389" fill="none" stroke="#f5fffb" stroke-width="46" stroke-linecap="round"/>
  <path d="M300 293 396 389" fill="none" stroke="#083842" stroke-width="18" stroke-linecap="round" opacity="0.22"/>
  <circle cx="203" cy="190" r="24" fill="#ffffff" opacity="0.42"/>
  <path d="M111 405h290" stroke="#9ffff0" stroke-width="16" stroke-linecap="round" opacity="0.22"/>
</svg>
